{
    "asset" : {
        "generator" : "Khronos glTF Blender I/O v1.8.19",
        "version" : "2.0"
    },
    "scene" : 0,
    "scenes" : [
        {
            "name" : "Scene",
            "nodes" : [
                0
            ]
        }
    ],
    "nodes" : [
        {
            "mesh" : 0,
            "name" : "\u529e\u516c\u697c02"
        }
    ],
    "materials" : [
        {
            "doubleSided" : true,
            "name" : "Mat3d66-1003769-19-4337.001",
            "pbrMetallicRoughness" : {
                "baseColorTexture" : {
                    "index" : 0
                },
                "metallicFactor" : 0,
                "roughnessFactor" : 0.5
            }
        },
        {
            "alphaMode" : "BLEND",
            "doubleSided" : true,
            "name" : "Mat3d66-1003769-23-3507.001",
            "pbrMetallicRoughness" : {
                "baseColorFactor" : [
                    0.564706027507782,
                    0.7372549772262573,
                    0.8352940082550049,
                    0.82677161693573
                ],
                "metallicFactor" : 0,
                "roughnessFactor" : 0.5
            }
        },
        {
            "doubleSided" : true,
            "name" : "Mat3d66-1003769-21-1424.001",
            "pbrMetallicRoughness" : {
                "baseColorTexture" : {
                    "index" : 1
                },
                "metallicFactor" : 0,
                "roughnessFactor" : 0.5
            }
        },
        {
            "doubleSided" : true,
            "name" : "Mat3d66-1003769-18-1220.001",
            "pbrMetallicRoughness" : {
                "baseColorTexture" : {
                    "index" : 2
                },
                "metallicFactor" : 0,
                "roughnessFactor" : 0.5
            }
        },
        {
            "doubleSided" : true,
            "name" : "Mat3d66-1003769-20-7468.001",
            "pbrMetallicRoughness" : {
                "baseColorFactor" : [
                    0.2509799897670746,
                    0.2980389893054962,
                    0.34902000427246094,
                    1
                ],
                "metallicFactor" : 0,
                "roughnessFactor" : 0.8622047305107117
            }
        },
        {
            "doubleSided" : true,
            "name" : "Mat3d66-1003769-22-5476.001",
            "pbrMetallicRoughness" : {
                "baseColorTexture" : {
                    "index" : 3
                },
                "metallicFactor" : 0,
                "roughnessFactor" : 0.5
            }
        }
    ],
    "meshes" : [
        {
            "name" : "Obj3d66-1003769-24-367",
            "primitives" : [
                {
                    "attributes" : {
                        "POSITION" : 0,
                        "NORMAL" : 1,
                        "TEXCOORD_0" : 2
                    },
                    "indices" : 3,
                    "material" : 0
                },
                {
                    "attributes" : {
                        "POSITION" : 4,
                        "NORMAL" : 5,
                        "TEXCOORD_0" : 6
                    },
                    "indices" : 7,
                    "material" : 1
                },
                {
                    "attributes" : {
                        "POSITION" : 8,
                        "NORMAL" : 9,
                        "TEXCOORD_0" : 10
                    },
                    "indices" : 11,
                    "material" : 2
                },
                {
                    "attributes" : {
                        "POSITION" : 12,
                        "NORMAL" : 13,
                        "TEXCOORD_0" : 14
                    },
                    "indices" : 15,
                    "material" : 3
                },
                {
                    "attributes" : {
                        "POSITION" : 16,
                        "NORMAL" : 17,
                        "TEXCOORD_0" : 18
                    },
                    "indices" : 19,
                    "material" : 4
                },
                {
                    "attributes" : {
                        "POSITION" : 20,
                        "NORMAL" : 21,
                        "TEXCOORD_0" : 22
                    },
                    "indices" : 23,
                    "material" : 5
                }
            ]
        }
    ],
    "textures" : [
        {
            "sampler" : 0,
            "source" : 0
        },
        {
            "sampler" : 0,
            "source" : 1
        },
        {
            "sampler" : 0,
            "source" : 2
        },
        {
            "sampler" : 0,
            "source" : 3
        }
    ],
    "images" : [
        {
            "bufferView" : 4,
            "mimeType" : "image/jpeg",
            "name" : "Image_0"
        },
        {
            "bufferView" : 13,
            "mimeType" : "image/jpeg",
            "name" : "Image_1"
        },
        {
            "bufferView" : 18,
            "mimeType" : "image/jpeg",
            "name" : "Image_2"
        },
        {
            "bufferView" : 27,
            "mimeType" : "image/jpeg",
            "name" : "Image_3"
        }
    ],
    "accessors" : [
        {
            "bufferView" : 0,
            "componentType" : 5126,
            "count" : 745,
            "max" : [
                30.9567813873291,
                22.57701301574707,
                9.423718452453613
            ],
            "min" : [
                -33.336463928222656,
                1.9073486328125e-06,
                -7.321712970733643
            ],
            "type" : "VEC3"
        },
        {
            "bufferView" : 1,
            "componentType" : 5126,
            "count" : 745,
            "type" : "VEC3"
        },
        {
            "bufferView" : 2,
            "componentType" : 5126,
            "count" : 745,
            "type" : "VEC2"
        },
        {
            "bufferView" : 3,
            "componentType" : 5123,
            "count" : 1104,
            "type" : "SCALAR"
        },
        {
            "bufferView" : 5,
            "componentType" : 5126,
            "count" : 298,
            "max" : [
                31.23026466369629,
                21.00000762939453,
                13.35755729675293
            ],
            "min" : [
                -33.401161193847656,
                0,
                -1.816338062286377
            ],
            "type" : "VEC3"
        },
        {
            "bufferView" : 6,
            "componentType" : 5126,
            "count" : 298,
            "type" : "VEC3"
        },
        {
            "bufferView" : 7,
            "componentType" : 5126,
            "count" : 298,
            "type" : "VEC2"
        },
        {
            "bufferView" : 8,
            "componentType" : 5123,
            "count" : 372,
            "type" : "SCALAR"
        },
        {
            "bufferView" : 9,
            "componentType" : 5126,
            "count" : 433,
            "max" : [
                31.556779861450195,
                23.420927047729492,
                10.023687362670898
            ],
            "min" : [
                -33.93646240234375,
                0,
                -7.72174596786499
            ],
            "type" : "VEC3"
        },
        {
            "bufferView" : 10,
            "componentType" : 5126,
            "count" : 433,
            "type" : "VEC3"
        },
        {
            "bufferView" : 11,
            "componentType" : 5126,
            "count" : 433,
            "type" : "VEC2"
        },
        {
            "bufferView" : 12,
            "componentType" : 5123,
            "count" : 504,
            "type" : "SCALAR"
        },
        {
            "bufferView" : 14,
            "componentType" : 5126,
            "count" : 56,
            "max" : [
                31.066545486450195,
                0.30001163482666016,
                13.415132522583008
            ],
            "min" : [
                18.048561096191406,
                1.1444091796875e-05,
                9.123679161071777
            ],
            "type" : "VEC3"
        },
        {
            "bufferView" : 15,
            "componentType" : 5126,
            "count" : 56,
            "type" : "VEC3"
        },
        {
            "bufferView" : 16,
            "componentType" : 5126,
            "count" : 56,
            "type" : "VEC2"
        },
        {
            "bufferView" : 17,
            "componentType" : 5123,
            "count" : 72,
            "type" : "SCALAR"
        },
        {
            "bufferView" : 19,
            "componentType" : 5126,
            "count" : 8487,
            "max" : [
                31.009031295776367,
                21.000011444091797,
                13.243795394897461
            ],
            "min" : [
                -33.441162109375,
                9.5367431640625e-07,
                -1.816331386566162
            ],
            "type" : "VEC3"
        },
        {
            "bufferView" : 20,
            "componentType" : 5126,
            "count" : 8487,
            "type" : "VEC3"
        },
        {
            "bufferView" : 21,
            "componentType" : 5126,
            "count" : 8487,
            "type" : "VEC2"
        },
        {
            "bufferView" : 22,
            "componentType" : 5123,
            "count" : 11904,
            "type" : "SCALAR"
        },
        {
            "bufferView" : 23,
            "componentType" : 5126,
            "count" : 723,
            "max" : [
                17.556777954101562,
                21.0000057220459,
                9.813579559326172
            ],
            "min" : [
                -33.336463928222656,
                9.5367431640625e-07,
                -7.721734523773193
            ],
            "type" : "VEC3"
        },
        {
            "bufferView" : 24,
            "componentType" : 5126,
            "count" : 723,
            "type" : "VEC3"
        },
        {
            "bufferView" : 25,
            "componentType" : 5126,
            "count" : 723,
            "type" : "VEC2"
        },
        {
            "bufferView" : 26,
            "componentType" : 5123,
            "count" : 972,
            "type" : "SCALAR"
        }
    ],
    "bufferViews" : [
        {
            "buffer" : 0,
            "byteLength" : 8940,
            "byteOffset" : 0
        },
        {
            "buffer" : 0,
            "byteLength" : 8940,
            "byteOffset" : 8940
        },
        {
            "buffer" : 0,
            "byteLength" : 5960,
            "byteOffset" : 17880
        },
        {
            "buffer" : 0,
            "byteLength" : 2208,
            "byteOffset" : 23840
        },
        {
            "buffer" : 0,
            "byteLength" : 37172,
            "byteOffset" : 26048
        },
        {
            "buffer" : 0,
            "byteLength" : 3576,
            "byteOffset" : 63220
        },
        {
            "buffer" : 0,
            "byteLength" : 3576,
            "byteOffset" : 66796
        },
        {
            "buffer" : 0,
            "byteLength" : 2384,
            "byteOffset" : 70372
        },
        {
            "buffer" : 0,
            "byteLength" : 744,
            "byteOffset" : 72756
        },
        {
            "buffer" : 0,
            "byteLength" : 5196,
            "byteOffset" : 73500
        },
        {
            "buffer" : 0,
            "byteLength" : 5196,
            "byteOffset" : 78696
        },
        {
            "buffer" : 0,
            "byteLength" : 3464,
            "byteOffset" : 83892
        },
        {
            "buffer" : 0,
            "byteLength" : 1008,
            "byteOffset" : 87356
        },
        {
            "buffer" : 0,
            "byteLength" : 126772,
            "byteOffset" : 88364
        },
        {
            "buffer" : 0,
            "byteLength" : 672,
            "byteOffset" : 215136
        },
        {
            "buffer" : 0,
            "byteLength" : 672,
            "byteOffset" : 215808
        },
        {
            "buffer" : 0,
            "byteLength" : 448,
            "byteOffset" : 216480
        },
        {
            "buffer" : 0,
            "byteLength" : 144,
            "byteOffset" : 216928
        },
        {
            "buffer" : 0,
            "byteLength" : 132586,
            "byteOffset" : 217072
        },
        {
            "buffer" : 0,
            "byteLength" : 101844,
            "byteOffset" : 349660
        },
        {
            "buffer" : 0,
            "byteLength" : 101844,
            "byteOffset" : 451504
        },
        {
            "buffer" : 0,
            "byteLength" : 67896,
            "byteOffset" : 553348
        },
        {
            "buffer" : 0,
            "byteLength" : 23808,
            "byteOffset" : 621244
        },
        {
            "buffer" : 0,
            "byteLength" : 8676,
            "byteOffset" : 645052
        },
        {
            "buffer" : 0,
            "byteLength" : 8676,
            "byteOffset" : 653728
        },
        {
            "buffer" : 0,
            "byteLength" : 5784,
            "byteOffset" : 662404
        },
        {
            "buffer" : 0,
            "byteLength" : 1944,
            "byteOffset" : 668188
        },
        {
            "buffer" : 0,
            "byteLength" : 138495,
            "byteOffset" : 670132
        }
    ],
    "samplers" : [
        {
            "magFilter" : 9729,
            "minFilter" : 9987
        }
    ],
    "buffers" : [
        {
            "byteLength" : 808628,
            "uri" : "data:application/octet-stream;base64,"
        }
    ]
}
